<svg id="Layer_1" data-name="Layer 1" xmlns="http://www.w3.org/2000/svg" viewBox="0 0 425.13 177.26"><defs><style>.cls-1{fill:#0297a7;}.cls-2{fill:#989898;}</style></defs><title>MW</title><path class="cls-1" d="M273.78,380.84V448q0,7.62-7.31,7.61h-6.87c-4.65,0-7.31-2.54-7.31-7.61V385.92c0-16.38-3.1-29.3-21.06-29.3-20.69,0-35.92,17.18-37.32,39.76V448q0,7.62-7.31,7.61h-7c-4.66,0-7.32-2.54-7.32-7.61V380.91c-0.7-13.92-4.85-24.29-20.92-24.29-21.72,0-37.46,18.92-37.46,43.15V448q0,7.62-7.32,7.61H99.7c-4.66,0-7.32-2.54-7.32-7.61V346.46c0-5.08,2.66-7.62,7.32-7.62h6.2q7.32,0,7.32,7.62v10.38a37.5,37.5,0,0,1-.67,6.69H113c4.43-10.15,18-27.46,42.56-27.46,20.33,0,32,9,36.35,26.72,5.59-10.45,20.68-26.72,43.53-26.72C261.81,336.08,273.78,351.07,273.78,380.84ZM511.4,339h-7.13c-4,0-6.5,1.85-7.76,6.22L472.61,417.8c-1.89,6.46-3.77,15.9-3.77,15.9h-0.42a147,147,0,0,0-3.78-15.9L440.73,345.2a9.92,9.92,0,0,0-1.84-3.58c-0.93-1.67-2.79-2.64-5.43-2.64h-7.62a7.3,7.3,0,0,0-1,.2,8.48,8.48,0,0,0-1.45.28,5.22,5.22,0,0,0-1.38.71,6.44,6.44,0,0,0-1.27,1.11c0,0.05-.09.09-0.13,0.15a9.67,9.67,0,0,0-2,3.78L394.66,417.8c-1.89,6.46-3.77,15.9-3.77,15.9h-0.42a146.91,146.91,0,0,0-3.78-15.9L362.79,345.2C361.53,340.82,359,339,355,339H347.9c-5,0-7.13,3.46-5.45,8.76l34.81,101.88c1.26,4.15,3.77,6,7.76,6h11.74c4,0,6.5-1.84,7.76-6L429.71,375l25.49,74.61c1.26,4.15,3.77,6,7.76,6h11.74c4,0,6.5-1.84,7.76-6l34.39-101.88C518.74,342.43,516.44,339,511.4,339Z" transform="translate(-92.38 -307.54)"/><path class="cls-2" d="M325.34,366.5L293.5,395.61l31.92,31.14a3.33,3.33,0,0,1,1,2.39v52.33a3.33,3.33,0,0,1-6.67,0V430.55l-33.44-32.63a3.33,3.33,0,0,1,.08-4.85l33.36-30.5V310.88a3.33,3.33,0,1,1,6.67,0V364A3.33,3.33,0,0,1,325.34,366.5Z" transform="translate(-92.38 -307.54)"/></svg>
